<?xml version="1.0" standalone="no"?>
<!DOCTYPE svg PUBLIC "-//W3C//DTD SVG 20010904//EN"
 "http://www.w3.org/TR/2001/REC-SVG-20010904/DTD/svg10.dtd">
<svg version="1.0" xmlns="http://www.w3.org/2000/svg"
 width="325.000000pt" height="325.000000pt" viewBox="0 0 325.000000 325.000000"
 preserveAspectRatio="xMidYMid meet">
<metadata>
Created by potrace 1.11, written by Peter Selinger 2001-2013
</metadata>
<g transform="translate(0.000000,325.000000) scale(0.100000,-0.100000)"
fill="#000000" stroke="none">
<path d="M1260 3184 c-286 -28 -409 -48 -550 -90 -127 -39 -278 -113 -357
-177 -44 -36 -147 -145 -148 -157 0 -3 -14 -25 -31 -50 -60 -87 -113 -238
-151 -432 -23 -115 -29 -912 -8 -1063 22 -165 82 -390 109 -407 6 -4 8 -8 3
-8 -4 0 0 -15 10 -33 9 -17 16 -35 15 -39 -1 -5 3 -8 9 -8 5 0 8 -4 4 -9 -3
-5 -1 -12 5 -16 5 -3 17 -21 26 -40 9 -19 20 -35 25 -35 5 0 9 -7 9 -15 0 -9
7 -18 15 -21 8 -4 13 -9 10 -13 -2 -4 5 -14 16 -21 10 -8 19 -18 19 -23 0 -13
98 -103 169 -156 135 -101 269 -160 473 -210 234 -58 319 -66 688 -66 370 0
454 8 690 66 200 50 336 110 472 211 90 66 212 190 200 203 -3 3 -1 5 5 5 12
0 69 90 65 103 -1 4 2 7 7 7 9 0 35 58 32 73 0 4 3 7 7 7 12 0 33 50 27 61 -4
5 -2 9 2 9 12 0 67 177 67 217 1 18 4 33 7 33 7 0 26 128 39 255 4 50 7 241 5
425 -2 279 -6 357 -23 465 -22 137 -67 308 -83 313 -5 2 -7 8 -4 12 8 12 -42
120 -55 120 -6 0 -9 4 -5 9 3 5 -2 16 -10 24 -8 9 -15 20 -15 26 0 6 -4 11
-10 11 -5 0 -10 4 -10 10 0 12 -23 40 -82 98 -130 129 -298 212 -538 266 -149
33 -368 60 -383 47 -7 -5 -11 -31 -11 -58 1 -26 -1 -52 -4 -58 -4 -5 -5 -24
-3 -42 1 -18 -1 -37 -4 -44 -7 -10 -17 -112 -16 -156 1 -13 -3 -23 -7 -23 -4
0 -8 -19 -9 -42 -1 -24 -3 -55 -4 -70 -1 -16 -4 -28 -8 -28 -3 0 -7 -12 -8
-27 -1 -36 -20 -158 -23 -158 -2 0 -8 -35 -13 -70 -1 -11 -5 -24 -9 -30 -3 -5
-4 -18 -3 -27 2 -10 0 -18 -5 -18 -5 0 -7 -8 -5 -17 1 -10 0 -22 -4 -28 -3 -5
-6 -17 -6 -25 0 -8 -4 -21 -8 -27 -5 -7 -5 -17 -2 -23 3 -5 2 -10 -2 -10 -5 0
-9 -8 -10 -17 -1 -19 -10 -58 -13 -58 -3 0 -11 -39 -13 -60 -1 -11 -6 -23 -11
-27 -5 -3 -9 -20 -9 -37 0 -17 -4 -31 -9 -31 -5 0 -8 -6 -7 -12 1 -7 -3 -26
-9 -41 -7 -16 -10 -32 -7 -37 3 -5 1 -10 -5 -12 -5 -1 -11 -12 -13 -23 -2 -11
-7 -29 -12 -40 -4 -11 -22 -60 -41 -109 -18 -49 -31 -92 -29 -96 3 -5 1 -10
-3 -12 -4 -1 -36 -61 -70 -131 -54 -113 -65 -129 -96 -142 -19 -8 -43 -12 -53
-9 -35 12 -139 68 -281 152 -122 71 -146 89 -159 119 -26 63 16 125 84 126 30
0 69 -18 178 -81 77 -45 143 -82 148 -82 7 0 30 50 27 59 -1 2 3 7 10 11 6 4
12 17 13 28 1 12 5 22 9 22 4 0 8 6 8 13 0 7 8 31 19 53 44 92 191 603 191
664 0 11 4 20 10 20 5 0 7 6 4 13 -3 8 0 34 6 58 17 69 24 111 34 199 4 30 10
62 13 70 3 8 5 30 4 48 -2 17 1 32 6 32 4 0 9 17 10 37 1 21 4 61 8 88 3 28 5
68 6 90 0 22 4 44 8 50 4 5 6 30 6 55 l-1 45 -264 1 c-146 1 -281 -1 -300 -2z
m-222 -772 c88 -57 87 -187 -4 -247 -35 -22 -106 -23 -148 0 -34 19 -71 68
-70 95 0 8 -5 18 -11 23 -7 4 -6 10 3 15 7 5 10 15 7 23 -3 9 3 26 15 39 11
13 20 26 20 29 0 8 59 39 85 44 29 6 76 -4 103 -21z m1319 0 c17 -9 37 -26 44
-39 7 -13 16 -23 19 -23 4 0 6 -11 5 -25 -2 -14 1 -25 6 -25 6 0 7 -5 4 -11
-4 -5 -8 -21 -9 -34 -2 -13 -10 -31 -20 -40 -9 -9 -16 -20 -16 -23 0 -17 -73
-45 -114 -45 -70 2 -131 55 -137 118 -5 66 1 85 40 124 53 53 106 60 178 23z
m-1233 -1370 c122 -115 245 -161 461 -169 237 -9 423 52 540 176 56 60 95 76
139 57 34 -14 57 -43 63 -79 4 -26 -30 -87 -69 -123 -167 -154 -367 -224 -640
-224 -270 0 -475 72 -631 223 -43 41 -73 84 -69 100 1 4 -3 7 -9 7 -8 0 -8 4
1 15 6 8 9 18 6 23 -6 10 39 56 64 65 36 14 75 -5 144 -71z"/>
</g>
</svg>
